<svg id="Capa_1" data-name="Capa 1" xmlns="http://www.w3.org/2000/svg" viewBox="0 0 50 39.01"><defs><style>.cls-1{fill:#d10a10;}.cls-1,.cls-2{fill-rule:evenodd;}.cls-2,.cls-3{fill:#e30613;}</style></defs><title>iso</title><path class="cls-1" d="M40.25,30.48h4.62a1.1,1.1,0,0,0,1.1-1.1V24.76a1.1,1.1,0,0,0-1.1-1.1H40.25a1.1,1.1,0,0,0-1.1,1.1v4.62a1.1,1.1,0,0,0,1.1,1.1" transform="translate(0 -0.49)"/><path class="cls-1" d="M44.54,12.85H41.36a1,1,0,0,0-1,1V17a1,1,0,0,0,1,1h3.18a1,1,0,0,0,1-1V13.85a1,1,0,0,0-1-1" transform="translate(0 -0.49)"/><path class="cls-1" d="M50,22V19.33a.7.7,0,0,0-.7-.7H46.68a.7.7,0,0,0-.7.7V22a.7.7,0,0,0,.7.7H49.3A.7.7,0,0,0,50,22" transform="translate(0 -0.49)"/><path class="cls-1" d="M47.92,8.86H46.05a.54.54,0,0,0-.54.54v1.87a.54.54,0,0,0,.54.54h1.87a.54.54,0,0,0,.54-.54V9.4a.54.54,0,0,0-.54-.54" transform="translate(0 -0.49)"/><path class="cls-2" d="M40.25,29.89h4.62a.51.51,0,0,0,.51-.51V24.76a.51.51,0,0,0-.51-.51H40.25a.51.51,0,0,0-.51.51v4.62a.51.51,0,0,0,.51.51" transform="translate(0 -0.49)"/><path class="cls-2" d="M44.54,13.45H41.36a.41.41,0,0,0-.41.41V17a.41.41,0,0,0,.41.41h3.18a.41.41,0,0,0,.41-.41V13.85a.41.41,0,0,0-.41-.41" transform="translate(0 -0.49)"/><path class="cls-2" d="M46.68,22.06H49.3a.11.11,0,0,0,.11-.11V19.33a.11.11,0,0,0-.11-.11H46.68a.11.11,0,0,0-.11.11v2.62a.11.11,0,0,0,.11.11" transform="translate(0 -0.49)"/><rect class="cls-3" x="46.05" y="8.91" width="1.83" height="1.82"/><path class="cls-2" d="M19.51.49A19.44,19.44,0,0,1,33.27,6.18a18.76,18.76,0,0,0-7-1.17H14.91a.76.76,0,0,0-.76.76V29.23a8.28,8.28,0,0,0,2.59,5.64l0,0a8.27,8.27,0,0,0,5.6,2.55.76.76,0,0,0,.76-.76V25.79h3c3.65,0,7.12-.8,9.57-2.74a8.86,8.86,0,0,0,3.22-5.28A19.71,19.71,0,0,1,39,20,19.51,19.51,0,1,1,19.51.49M30.79,15.34c0,2.93-2.58,3.76-5.37,3.76H22.27V11.8h3.28C28.21,11.8,30.79,12.37,30.79,15.34Z" transform="translate(0 -0.49)"/><path class="cls-1" d="M38,20.26A18.49,18.49,0,0,1,24.79,37.71a18.55,18.55,0,0,0,.8-11.92h.48c3.65,0,7.12-.8,9.57-2.74A8.8,8.8,0,0,0,38,20.26M19.51,1.52A18.4,18.4,0,0,1,30.92,5.46,22.05,22.05,0,0,0,26.25,5H14.9a.76.76,0,0,0-.76.76v7.46a18.56,18.56,0,0,0-11.68-.37A18.48,18.48,0,0,1,19.51,1.52Z" transform="translate(0 -0.49)"/></svg>