<svg id="Capa_1" data-name="Capa 1" xmlns="http://www.w3.org/2000/svg" viewBox="0 0 300 77"><defs><style>.cls-1{fill:#d10a10;}.cls-1,.cls-2{fill-rule:evenodd;}.cls-2,.cls-3{fill:#e30613;}.cls-4{fill:#12100c;}</style></defs><title>logo</title><path class="cls-1" d="M78.8,59h9.05A2.16,2.16,0,0,0,90,56.87V47.82a2.16,2.16,0,0,0-2.16-2.16H78.8a2.16,2.16,0,0,0-2.16,2.16v9.05A2.16,2.16,0,0,0,78.8,59"/><path class="cls-1" d="M87.21,24.51H81a2,2,0,0,0-2,2v6.23a2,2,0,0,0,2,2h6.23a2,2,0,0,0,2-2V26.46a2,2,0,0,0-2-2"/><path class="cls-1" d="M97.9,42.32V37.19a1.38,1.38,0,0,0-1.38-1.38H91.39A1.38,1.38,0,0,0,90,37.19v5.13a1.38,1.38,0,0,0,1.38,1.38h5.13a1.38,1.38,0,0,0,1.38-1.38"/><path class="cls-1" d="M93.83,16.68H90.17a1.07,1.07,0,0,0-1.07,1.07v3.67a1.07,1.07,0,0,0,1.07,1.07h3.67a1.07,1.07,0,0,0,1.07-1.07V17.75a1.07,1.07,0,0,0-1.07-1.07"/><path class="cls-2" d="M78.8,57.87h9.05a1,1,0,0,0,1-1V47.82a1,1,0,0,0-1-1H78.8a1,1,0,0,0-1,1v9.05a1,1,0,0,0,1,1"/><path class="cls-2" d="M87.21,25.67H81a.8.8,0,0,0-.8.8v6.23a.8.8,0,0,0,.8.8h6.23a.8.8,0,0,0,.8-.8V26.46a.8.8,0,0,0-.8-.8"/><path class="cls-2" d="M91.39,42.54h5.13a.22.22,0,0,0,.22-.22V37.19a.22.22,0,0,0-.22-.22H91.39a.22.22,0,0,0-.22.22v5.13a.22.22,0,0,0,.22.22"/><rect class="cls-3" x="90.17" y="17.75" width="3.57" height="3.57"/><path class="cls-2" d="M38.19.31A38.07,38.07,0,0,1,65.14,11.43,36.73,36.73,0,0,0,51.43,9.15H29.19a1.49,1.49,0,0,0-1.49,1.49V56.56c0,4,2,8,5.06,11l.09.08c3,3,7,5,11,5a1.49,1.49,0,0,0,1.49-1.49V49.85h5.78c7.15,0,13.94-1.57,18.73-5.37a17.35,17.35,0,0,0,6.31-10.34,38.59,38.59,0,0,1,.25,4.37A38.19,38.19,0,1,1,38.19.31M60.28,29.37c0,5.73-5,7.36-10.52,7.36H43.6V22.44H50C55.23,22.44,60.28,23.55,60.28,29.37Z"/><path class="cls-1" d="M74.37,39A36.2,36.2,0,0,1,48.55,73.18a36.32,36.32,0,0,0,1.57-23.34h.94c7.15,0,13.94-1.57,18.73-5.37A17.24,17.24,0,0,0,74.37,39M38.19,2.32A36,36,0,0,1,60.53,10a43.18,43.18,0,0,0-9.13-.89H29.17a1.49,1.49,0,0,0-1.49,1.49V25.24a36.33,36.33,0,0,0-22.87-.72A36.19,36.19,0,0,1,38.19,2.32Z"/><path class="cls-4" d="M159.31,28.74c0-14.53-10.94-19.55-24.85-19.55H111.14V57.3c0,7.66,7.65,15.39,15.34,15.39V48.74h7.62c13.28,0,25.2-5.29,25.2-20M144,28.83c0,6-5.29,7.71-11,7.71h-6.46v-15h6.73C138.68,21.56,144,22.73,144,28.83Z"/><path class="cls-4" d="M176.41,72.69V28H161.7V57.34c0,7.62,7.39,15.35,14.71,15.35"/><path class="cls-3" d="M177.48,13.76a8.44,8.44,0,0,0-16.86,0,8.44,8.44,0,0,0,16.86,0"/><polygon class="cls-4" points="231.81 72.69 214.14 49.28 230.19 28.02 213.6 28.02 205.17 39.95 196.82 28.02 179.69 28.02 195.84 49.28 177.99 72.69 195.03 72.69 204.9 58.97 214.5 72.69 231.81 72.69"/><path class="cls-4" d="M300,50.89c0-15.25-9.24-24.31-22.42-24.31-13.54,0-24.13,9.33-24.13,23.95,0,15.07,11.12,23.59,24.58,23.59,9.06,0,16.06-3.41,20.27-9.51l-10.23-6.46a11.68,11.68,0,0,1-9.87,4.66c-5.29,0-10.23-3.5-10.67-8.43h32.38c.09-1.08.09-2.33.09-3.5m-32.47-5.65c.36-4.57,4.48-8.52,10.14-8.52,5.83,0,8.79,3.86,8.79,8.52Z"/><path class="cls-4" d="M248.1,72.69V28H233.39V57.34c0,7.62,7.39,15.35,14.71,15.35"/><path class="cls-3" d="M249.17,13.76a8.44,8.44,0,0,0-16.86,0,8.44,8.44,0,0,0,16.86,0"/></svg>